<?xml version="1.0" encoding="utf-8"?>
<!-- Generator: Adobe Illustrator 23.0.0, SVG Export Plug-In . SVG Version: 6.00 Build 0)  -->
<svg version="1.1" id="图层_1" xmlns="http://www.w3.org/2000/svg" xmlns:xlink="http://www.w3.org/1999/xlink" x="0px" y="0px"
	 viewBox="0 0 18 18" style="enable-background:new 0 0 18 18;" xml:space="preserve">
<style type="text/css">
	.st0{fill:#4AFFFF;}
	.st1{fill:#37A1A1;}
</style>
<path class="st0" d="M9.67,8.57l6.51-6.52c0.33-0.33,0.33-0.87,0-1.2l-0.04-0.04c-0.33-0.33-0.87-0.33-1.2,0L8.43,7.34L1.92,0.82
	c-0.33-0.33-0.87-0.33-1.2,0L0.68,0.85c-0.34,0.33-0.34,0.87,0,1.2L7.2,8.57l-6.51,6.52c-0.33,0.33-0.33,0.87,0,1.2l0.04,0.04
	c0.33,0.33,0.87,0.33,1.2,0l6.51-6.52l6.51,6.52c0.33,0.33,0.87,0.33,1.2,0l0.04-0.04c0.33-0.33,0.33-0.87,0-1.2L9.67,8.57z"/>
</svg>
