<?xml version="1.0" encoding="utf-8"?>
<!-- Generator: Adobe Illustrator 23.0.0, SVG Export Plug-In . SVG Version: 6.00 Build 0)  -->
<svg version="1.1" id="图层_1" xmlns="http://www.w3.org/2000/svg" xmlns:xlink="http://www.w3.org/1999/xlink" x="0px" y="0px"
	 viewBox="0 0 18 18" style="enable-background:new 0 0 18 18;" xml:space="preserve">
<style type="text/css">
	.st0{fill:#4AFFFF;}
	.st1{fill:#37A1A1;}
</style>
<path class="st1" d="M10.48,8.57L17,2.05c0.33-0.33,0.33-0.87,0-1.2l-0.04-0.04c-0.33-0.33-0.87-0.33-1.2,0L9.25,7.34L2.73,0.82
	c-0.33-0.33-0.87-0.33-1.2,0L1.5,0.85c-0.34,0.33-0.34,0.87,0,1.2l6.51,6.52L1.5,15.09c-0.33,0.33-0.33,0.87,0,1.2l0.04,0.04
	c0.33,0.33,0.87,0.33,1.2,0l6.51-6.52l6.51,6.52c0.33,0.33,0.87,0.33,1.2,0L17,16.29c0.33-0.33,0.33-0.87,0-1.2L10.48,8.57z"/>
</svg>
